<?xml version="1.0" standalone="no"?>
<!DOCTYPE svg PUBLIC "-//W3C//DTD SVG 20010904//EN"
 "http://www.w3.org/TR/2001/REC-SVG-20010904/DTD/svg10.dtd">
<svg version="1.0" xmlns="http://www.w3.org/2000/svg"
 width="903.000000pt" height="903.000000pt" viewBox="0 0 903.000000 903.000000"
 preserveAspectRatio="xMidYMid meet">
<metadata>
Created by potrace 1.14, written by Peter Selinger 2001-2017
</metadata>
<g transform="translate(0.000000,903.000000) scale(0.100000,-0.100000)"
fill="#000000" stroke="none">
<path d="M2101 8958 c-118 -644 -410 -1121 -839 -1371 -131 -77 -309 -145
-484 -188 -54 -12 -98 -25 -98 -28 0 -4 16 -24 35 -46 154 -176 311 -478 349
-670 2 -11 11 -54 19 -95 26 -129 32 -198 31 -415 0 -176 -12 -344 -30 -440
-3 -11 -6 -38 -9 -60 -2 -22 -6 -54 -9 -70 -15 -81 -56 -295 -65 -335 -5 -25
-12 -56 -14 -70 -3 -14 -14 -68 -25 -120 -12 -52 -23 -106 -26 -120 -3 -14
-14 -68 -26 -120 -28 -128 -64 -311 -89 -445 -21 -114 -25 -137 -37 -220 -3
-27 -8 -58 -10 -69 -2 -10 -6 -51 -10 -90 -3 -39 -8 -73 -9 -76 -7 -12 -19
-264 -19 -400 0 -184 9 -285 35 -385 11 -44 22 -87 24 -96 36 -155 159 -494
245 -672 239 -500 578 -878 1035 -1157 110 -68 366 -192 534 -260 85 -34 331
-121 545 -192 508 -169 629 -214 814 -304 233 -112 402 -230 550 -384 l52 -55
38 45 c167 202 344 335 652 488 198 99 208 104 525 237 127 54 275 118 330
142 55 25 120 54 145 65 141 63 455 231 570 307 223 145 394 283 565 455 258
259 454 541 622 895 118 250 147 400 148 766 0 154 -8 336 -20 440 -3 22 -7
65 -11 95 -3 30 -8 71 -9 90 -2 19 -13 98 -25 175 -11 77 -23 151 -25 165 -3
25 -61 361 -69 410 -8 43 -47 274 -51 300 -2 14 -10 70 -19 125 -16 102 -25
161 -31 205 -2 14 -7 57 -11 95 -3 39 -8 81 -10 95 -23 177 -22 616 1 745 3
17 12 68 21 115 55 305 175 562 374 803 38 47 66 88 61 91 -5 3 -39 13 -75 21
-106 25 -263 84 -376 142 -315 161 -552 434 -699 806 -59 147 -127 410 -145
557 -3 25 -8 54 -10 65 -3 11 -5 27 -5 36 -1 14 -16 11 -103 -17 -57 -19 -177
-57 -268 -84 -91 -28 -178 -54 -195 -60 -168 -53 -640 -161 -948 -215 -85 -16
-336 -50 -427 -60 -30 -3 -75 -8 -100 -11 -210 -25 -632 -34 -910 -21 -182 9
-197 11 -470 43 -90 11 -340 60 -480 94 -318 79 -646 198 -912 331 -54 27 -99
49 -101 49 -1 0 -9 -33 -16 -72z"/>
</g>
</svg>
